<svg width="25" height="26" viewBox="0 0 25 26" fill="none" xmlns="http://www.w3.org/2000/svg">
<path d="M20.2025 10.3718L22.5642 11.6904C23.5907 12.2636 23.5907 13.7365 22.5642 14.3097L20.1563 15.654L13.7865 19.2104C13.2915 19.4867 12.734 19.6317 12.1671 19.6317C11.6001 19.6317 11.0426 19.4867 10.5476 19.2104L1.76992 14.3097C0.74336 13.7365 0.74336 12.2636 1.76992 11.6904L4.07056 10.4059" stroke="black" stroke-width="1.5" stroke-miterlimit="10" stroke-linecap="round" stroke-linejoin="round"/>
<path d="M4.09406 15.7611L1.76992 17.0587C0.74336 17.6318 0.74336 19.1048 1.76992 19.6779L10.5476 24.5787C11.0426 24.855 11.6001 25 12.1671 25C12.734 25 13.2915 24.855 13.7865 24.5787L13.8933 24.5191M18.3334 22.0401L22.5642 19.6779C23.5907 19.1048 23.5907 17.6318 22.5642 17.0587L20.2559 15.7699M10.5476 13.842L1.76992 8.9413C0.74336 8.36815 0.74336 6.8952 1.76992 6.32205L10.5476 1.42132C11.0426 1.14504 11.6001 1 12.1671 1C12.734 1 13.2915 1.14504 13.7865 1.42132L22.5642 6.32205C23.5907 6.8952 23.5907 8.36815 22.5642 8.9413L13.7865 13.842C13.2915 14.1183 12.734 14.2634 12.1671 14.2634C11.6001 14.2634 11.0426 14.1183 10.5476 13.842Z" stroke="black" stroke-width="1.5" stroke-miterlimit="10" stroke-linecap="round" stroke-linejoin="round"/>
</svg>
