<svg width="24" height="24" viewBox="0 0 24 24" fill="none" xmlns="http://www.w3.org/2000/svg">
<path d="M23.0568 7.32891C22.4523 5.89978 21.5871 4.61639 20.4851 3.51483C19.3836 2.41289 18.1002 1.54763 16.671 0.943172C15.1912 0.317391 13.6195 0 12 0C10.3801 0 8.80861 0.317391 7.32891 0.943172C5.89983 1.54767 4.61662 2.41289 3.51464 3.51483C2.41289 4.61658 1.54763 5.89978 0.943172 7.32891C0.317391 8.8088 0 10.3805 0 12C0 13.6195 0.317391 15.1912 0.943172 16.6711C1.54767 18.1002 2.41289 19.3834 3.51464 20.4852C4.61658 21.5871 5.89978 22.4524 7.32891 23.0569C8.80861 23.6826 10.3801 24 12 24C13.6195 24 15.1912 23.6826 16.6711 23.0568C18.1002 22.4523 19.3836 21.5871 20.4852 20.4851C21.5871 19.3836 22.4524 18.1002 23.0569 16.671C23.6826 15.1912 24 13.6195 24 12C24 10.3805 23.6826 8.8088 23.0568 7.32891ZM22.3201 16.3594C21.7559 17.6932 20.9482 18.891 19.9195 19.9195C18.891 20.9482 17.6932 21.7559 16.3594 22.3201C14.9787 22.9039 13.5119 23.2 12 23.2C10.4879 23.2 9.02109 22.9039 7.64062 22.3201C6.30684 21.7559 5.109 20.9482 4.08028 19.9195C3.05175 18.8908 2.24414 17.6932 1.67986 16.3594C1.09608 14.9787 0.799969 13.5119 0.799969 12C0.799969 10.4881 1.09608 9.02128 1.67986 7.64062C2.24409 6.30684 3.05175 5.10919 4.08023 4.08047C5.10895 3.05175 6.3068 2.24414 7.64058 1.67991C9.02105 1.09613 10.4879 0.800016 12 0.800016C13.5119 0.800016 14.9787 1.09613 16.3593 1.67991C17.6931 2.24414 18.891 3.0518 19.9195 4.08047C20.9482 5.109 21.7558 6.30684 22.32 7.64062C22.9038 9.02128 23.1999 10.4881 23.1999 12C23.2 13.5119 22.9039 14.9787 22.3201 16.3594Z" fill="black"/>
<path d="M10.2354 12.0001C10.2354 12.9731 11.027 13.7648 12.0001 13.7648C12.9731 13.7648 13.7648 12.9731 13.7648 12.0001C13.7648 11.027 12.9731 10.2354 12.0001 10.2354C11.027 10.2354 10.2354 11.027 10.2354 12.0001ZM12.0001 11.1177C12.4867 11.1177 12.8824 11.5134 12.8824 12.0001C12.8824 12.4867 12.4867 12.8824 12.0001 12.8824C11.5134 12.8824 11.1177 12.4867 11.1177 12.0001C11.1177 11.5134 11.5134 11.1177 12.0001 11.1177Z" fill="black"/>
<path d="M17.0914 6.38261L10.5835 9.03403C9.88393 9.31901 9.31907 9.88388 9.03409 10.5835L6.38272 17.0914C6.35276 17.1649 6.34517 17.2457 6.3609 17.3235C6.37663 17.4013 6.41499 17.4727 6.47116 17.5289C6.50859 17.5663 6.55305 17.596 6.60198 17.6163C6.65091 17.6366 6.70336 17.647 6.75633 17.647C6.80852 17.6471 6.86023 17.637 6.90858 17.6173L13.4164 14.9659C14.116 14.6809 14.6809 14.116 14.9658 13.4164L17.6172 6.90848C17.6472 6.83496 17.6548 6.75423 17.639 6.67641C17.6233 6.5986 17.5849 6.52716 17.5288 6.47105C17.4726 6.41495 17.4012 6.37664 17.3234 6.36091C17.2456 6.34518 17.1649 6.35273 17.0914 6.38261ZM14.2186 13.1119C14.0152 13.6118 13.6118 14.0152 13.112 14.2186L7.4914 16.5086L9.78136 10.8879C9.9848 10.3881 10.3881 9.9847 10.888 9.78126L16.5086 7.49126L14.2186 13.1119Z" fill="black"/>
</svg>
