<svg width="25" height="24" viewBox="0 0 25 24" fill="none" xmlns="http://www.w3.org/2000/svg">
<path d="M24.5 3.52941V20.4706C24.5 21.4066 24.1282 22.3044 23.4663 22.9663C22.8044 23.6282 21.9066 24 20.9706 24H4.02941C3.09335 24 2.19563 23.6282 1.53374 22.9663C0.871848 22.3044 0.5 21.4066 0.5 20.4706V3.52941C0.5 2.59335 0.871848 1.69564 1.53374 1.03374C2.19563 0.371849 3.09335 1.12588e-06 4.02941 1.12588e-06H13.9118C14.099 1.12588e-06 14.2785 0.0743708 14.4109 0.206749C14.5433 0.339128 14.6176 0.518672 14.6176 0.705883C14.6176 0.893095 14.5433 1.07264 14.4109 1.20502C14.2785 1.3374 14.099 1.41177 13.9118 1.41177H8.97059V4.94118C8.97059 5.12839 8.89622 5.30793 8.76384 5.44031C8.63146 5.57269 8.45192 5.64706 8.26471 5.64706C8.07749 5.64706 7.89795 5.57269 7.76557 5.44031C7.63319 5.30793 7.55882 5.12839 7.55882 4.94118V1.41177H4.02941C3.46778 1.41177 2.92914 1.63487 2.53201 2.03201C2.13487 2.42915 1.91176 2.96778 1.91176 3.52941V11.2941H7.55882V8.05694L7.05906 7.55859C6.92651 7.42604 6.85205 7.24627 6.85205 7.05883C6.85205 6.87138 6.92651 6.69161 7.05906 6.55906C7.1916 6.42651 7.37138 6.35205 7.55882 6.35205C7.74627 6.35205 7.92604 6.42651 8.05859 6.55906L8.76447 7.26494C8.82998 7.33062 8.8819 7.40856 8.91727 7.49431C8.95264 7.58006 8.97075 7.67195 8.97059 7.76471V11.2941H11.0882C11.2754 11.2941 11.455 11.3685 11.5874 11.5009C11.7197 11.6332 11.7941 11.8128 11.7941 12C11.7941 12.1872 11.7197 12.3668 11.5874 12.4991C11.455 12.6315 11.2754 12.7059 11.0882 12.7059H8.97059V16.2353C8.97059 16.4225 8.89622 16.6021 8.76384 16.7344C8.63146 16.8668 8.45192 16.9412 8.26471 16.9412C8.07749 16.9412 7.89795 16.8668 7.76557 16.7344C7.63319 16.6021 7.55882 16.4225 7.55882 16.2353V12.7059H1.91176V20.4706C1.91176 21.0322 2.13487 21.5709 2.53201 21.968C2.92914 22.3651 3.46778 22.5882 4.02941 22.5882H7.55882V19.0588C7.55882 18.8716 7.63319 18.6921 7.76557 18.5597C7.89795 18.4273 8.07749 18.3529 8.26471 18.3529C8.45192 18.3529 8.63146 18.4273 8.76384 18.5597C8.89622 18.6921 8.97059 18.8716 8.97059 19.0588V22.5882H16.0294V19.0588C16.0294 18.8716 16.1038 18.6921 16.2362 18.5597C16.3685 18.4273 16.5481 18.3529 16.7353 18.3529C16.9225 18.3529 17.1021 18.4273 17.2344 18.5597C17.3668 18.6921 17.4412 18.8716 17.4412 19.0588V22.5882H20.9706C21.5322 22.5882 22.0709 22.3651 22.468 21.968C22.8651 21.5709 23.0882 21.0322 23.0882 20.4706V12.7059H17.4412V15.9431L17.9409 16.4414C18.0735 16.574 18.148 16.7537 18.148 16.9412C18.148 17.1286 18.0735 17.3084 17.9409 17.4409C17.8084 17.5735 17.6286 17.648 17.4412 17.648C17.2537 17.648 17.074 17.5735 16.9414 17.4409L16.2355 16.7351C16.17 16.6694 16.1181 16.5914 16.0827 16.5057C16.0474 16.4199 16.0292 16.3281 16.0294 16.2353V12.7059H14.204L13.7056 13.2056C13.5731 13.3382 13.3933 13.4127 13.2059 13.4127C13.0184 13.4127 12.8387 13.3382 12.7061 13.2056C12.5736 13.0731 12.4991 12.8933 12.4991 12.7059C12.4991 12.5184 12.5736 12.3387 12.7061 12.2061L13.412 11.5002C13.4777 11.4347 13.5556 11.3828 13.6414 11.3474C13.7271 11.3121 13.819 11.294 13.9118 11.2941H23.0882V3.52941C23.0882 2.96778 22.8651 2.42915 22.468 2.03201C22.0709 1.63487 21.5322 1.41177 20.9706 1.41177H17.0275L16.5292 1.91153C16.4635 1.97716 16.3856 2.02922 16.2999 2.06474C16.2141 2.10026 16.1222 2.11854 16.0294 2.11854C15.9366 2.11854 15.8447 2.10026 15.7589 2.06474C15.6732 2.02922 15.5953 1.97716 15.5296 1.91153C15.464 1.8459 15.412 1.76799 15.3764 1.68224C15.3409 1.59649 15.3226 1.50458 15.3226 1.41177C15.3226 1.31895 15.3409 1.22704 15.3764 1.14129C15.412 1.05555 15.464 0.977631 15.5296 0.912001L16.2355 0.206119C16.3012 0.14061 16.3791 0.0886883 16.4649 0.0533212C16.5507 0.0179541 16.6425 -0.000164541 16.7353 1.12588e-06H20.9706C21.9066 1.12588e-06 22.8044 0.371849 23.4663 1.03374C24.1282 1.69564 24.5 2.59335 24.5 3.52941Z" fill="black"/>
</svg>
